<svg width="75" height="64" viewBox="0 0 75 64" fill="none" xmlns="http://www.w3.org/2000/svg">
<path d="M41.8579 11.471C40.4272 11.3162 38.9736 11.2276 37.5 11.2055C31.0609 11.2341 24.3861 12.8003 18.0679 15.8015C13.3768 18.1216 8.80713 21.3971 4.83856 25.4374C2.8895 27.4999 0.401938 30.4863 0 33.6725C0.0475 36.4326 3.00956 39.8394 4.83856 41.9078C8.56 45.7894 13.0107 48.9711 18.0679 51.5436C18.2399 51.6271 18.4123 51.7095 18.5852 51.7908L13.8932 59.9847L20.2685 63.7526L54.732 3.7505L48.5954 0L41.8579 11.471ZM56.4102 15.5634L51.7272 23.6795C53.8816 26.4784 55.1605 29.9299 55.1605 33.6725C55.1605 43.0011 47.2529 50.564 37.4954 50.564C37.0736 50.564 36.6648 50.5185 36.2503 50.4907L33.1512 55.8558C34.5804 56.0088 36.0256 56.1203 37.4999 56.1396C43.9451 56.1106 50.6162 54.5263 56.9274 51.5436C61.6186 49.2235 66.1928 45.9481 70.1614 41.9078C72.1105 39.8453 74.5979 36.8589 74.9999 33.6725C74.9524 30.9124 71.9904 27.5057 70.1614 25.4373C66.4399 21.5557 61.9847 18.374 56.9274 15.8014C56.7567 15.7186 56.582 15.6442 56.4102 15.5634ZM37.4954 16.7811C37.9233 16.7811 38.3478 16.7982 38.768 16.8269L35.1379 23.1119C30.0433 24.1448 26.2207 28.4794 26.2207 33.668C26.2207 34.9714 26.4608 36.2192 26.9028 37.3758C26.9033 37.3771 26.9023 37.3791 26.9028 37.3804L23.2635 43.6838C21.1041 40.8824 19.8302 37.4195 19.8302 33.6724C19.8303 24.344 27.738 16.7811 37.4954 16.7811ZM48.056 30.0333L39.8758 44.2057C44.9431 43.1534 48.7381 38.8385 48.7381 33.668C48.7381 32.3884 48.4827 31.1718 48.056 30.0333Z" fill="black"/>
</svg>
